<?xml version="1.0" standalone="no"?><!DOCTYPE svg PUBLIC "-//W3C//DTD SVG 1.1//EN"
        "http://www.w3.org/Graphics/SVG/1.1/DTD/svg11.dtd">
<svg t="1567559611203" class="icon" viewBox="0 0 1170 1024" version="1.1" xmlns="http://www.w3.org/2000/svg" p-id="3939"
     width="228.515625" height="200">
    <defs>
        <style type="text/css"></style>
    </defs>
    <path d="M585.14 182.856c-219.427 0-402.284 117.394-402.284 256a18.286 18.286 0 0 0 36.572 0c0-117.029 170.787-219.428 365.712-219.428a18.286 18.286 0 0 0 0-36.572z"
          p-id="3940" fill="#2c2c2c"></path>
    <path d="M585.14 0C261.85 0 0 196.388 0 438.855c0 151.04 101.668 284.159 255.999 363.153v2.56c0 65.462-49.006 136.045-70.583 173.347a32.914 32.914 0 0 0 30.72 46.08 92.891 92.891 0 0 1 9.143 0c114.102-18.651 221.987-123.61 246.856-154.33a777.14 777.14 0 0 0 113.005 8.045c323.29 0 585.14-196.387 585.14-438.855S908.43 0 585.14 0z m0 804.568a706.922 706.922 0 0 1-102.4-7.68h-10.605a73.143 73.143 0 0 0-56.685 26.697 491.518 491.518 0 0 1-112.64 90.696 285.987 285.987 0 0 0 26.331-105.69v-6.583a73.143 73.143 0 0 0-39.862-65.097C153.965 667.425 73.143 556.249 73.143 438.855c0-201.508 229.667-365.712 511.997-365.712s511.998 164.204 511.998 365.712S867.47 804.568 585.14 804.568z"
          p-id="3941" fill="#2c2c2c"></path>
</svg>